<?xml version="1.0" encoding="utf-8"?>
<!-- Generator: Adobe Illustrator 21.0.2, SVG Export Plug-In . SVG Version: 6.00 Build 0)  -->
<svg version="1.1" id="Calque_1" xmlns="http://www.w3.org/2000/svg" xmlns:xlink="http://www.w3.org/1999/xlink" x="0px" y="0px"
	 viewBox="0 0 672 484" style="enable-background:new 0 0 672 484;" xml:space="preserve">
<style type="text/css">
	.st0{fill:#FCFCFC;}
	.st1{fill:#BA1818;}
</style>
<title>ACC16</title>
<g id="MBJogg.tif">
	<path class="st0" d="M415.4,239.3c-7.8-10.2-18.9-12.7-30.5-10.8c-16.2,2.7-26.2,15.4-26.1,31.9c0,4.6,0,9.2,0,13.8
		c-0.2,22.4,20.1,36.5,41.1,31c7.2-1.9,13-6,18.4-11.4l23.1,24.8c0.3-0.3-0.3,0.2-0.8,0.8c-15.9,16.4-35.1,23.1-57.8,20.4
		c-8.4-0.9-16.5-3.3-24-7c-19.7-10-31.4-26-34.8-47.6c-1.4-8.5-0.7-17.3-1-26c-0.2-9,1.8-17.9,5.8-26c9.1-19.5,24.3-31.7,45.1-37.1
		c11.2-2.8,23-2.8,34.2,0c14.2,3.4,25.3,11.5,34.6,22.4L415.4,239.3z"/>
	<path class="st0" d="M273.9,239.3c-7.8-10.2-18.9-12.7-30.5-10.8c-16.2,2.7-26.2,15.4-26.1,31.9c0,4.6,0,9.2,0,13.8
		c-0.2,22.4,20.1,36.5,41.1,31c7.2-1.9,13-6,18.4-11.4l23.1,24.8c0.3-0.3-0.3,0.2-0.8,0.8c-15.9,16.4-35.1,23.1-57.8,20.4
		c-8.4-0.9-16.5-3.3-24-7c-19.7-10-31.4-26-34.8-47.6c-1.4-8.5-0.7-17.3-1-26c-0.2-9,1.8-17.9,5.8-26c9.1-19.5,24.3-31.7,45.1-37.1
		c11.2-2.8,23-2.8,34.2,0c14.2,3.4,25.3,11.5,34.6,22.4L273.9,239.3z"/>
	<path class="st0" d="M152.3,303.3c-8-0.3-11-4.6-11-11c0-10.2,0-20.3,0-30.5c0-26.9-11.9-46.8-35.4-59.8
		c-12.4-6.9-26.6-9.5-40.6-7.5c-24.8,3.4-43.4,16.4-54.1,39.7c-3.7,8-5.7,16.8-5.7,25.6c0,9-0.4,17.9,1.5,26.9
		c4.3,20.5,15.8,35.4,33.9,45.5c7.7,4.4,16,6.5,24.8,7.9c12.3,1.8,23.8-0.4,35-5.1c5.8-2.4,10.9-6.3,14.7-11.3l0.4,1.2
		c4.8,7.7,11.2,12.2,20.8,11.9c7.6-0.3,15.2-0.1,23-0.1v-33.3C157.2,303.3,154.8,303.4,152.3,303.3z M105,280.1
		c-0.3,3.3-1.2,6.4-2.8,9.3c-6.1,12.2-20.7,19.3-35.3,16.4c-13.4-2.7-24-14.4-25.2-27.8c-0.4-4.5-0.3-9-0.4-13.4
		c-0.3-10,2.1-19,9.3-26.5C62.3,226,82.1,224.7,95,236c5.1,4.5,8.5,10.6,9.6,17.3C105.9,262,105.3,271.1,105,280.1z"/>
</g>
<path class="st1" d="M511.1,251.7v-16.4c-5.7,5.3-11.4,10.5-17.1,15.7v15C497.8,259.3,503.9,254.2,511.1,251.7z"/>
<path class="st1" d="M522.4,272c-5.7,0.1-11.4,0.3-17.1,0.6v11.3c5.7-0.6,11.4-1.4,17.1-2.5V272z"/>
<path class="st1" d="M465.7,144.9c1.4-0.2,2.7-0.4,4.1-0.6l-4.1,0.2V144.9z"/>
<path class="st1" d="M505.3,209.3c5.6-2.4,11.3-4.6,17-6.6v-54c-4.5-1.5-9.1-2.8-13.8-4c-1.1,0.9-2.2,1.8-3.3,2.7L505.3,209.3
	L505.3,209.3z"/>
<path class="st1" d="M505.3,340.5h17.1V294c-5.7,1.6-11.4,3.1-17.1,4.5V340.5z"/>
<path class="st1" d="M494,280.5v15.2c5.7-1.5,11.4-3,17.1-4.5V278C505.5,279,499.8,279.9,494,280.5z"/>
<path class="st1" d="M522.4,222.8c-5.7-0.7-11.4-1.5-17.1-2.4v22.4c5.7-5.2,11.4-10.5,17.1-15.7V222.8z"/>
<path class="st1" d="M533.3,149.3v-14.7c-4.7,3.4-9.3,7-13.8,10.7C524.1,146.4,528.7,147.8,533.3,149.3z"/>
<path class="st1" d="M505.3,214.3L505.3,214.3L505.3,214.3z"/>
<path class="st1" d="M505.3,121.7V135c5.7-0.8,11.4-1.6,17.1-2.4V92H507c-5.1,16.1-17.8,30.4-41.3,33.8v11.7c2.5,0.1,5,0.3,7.5,0.5
	C483,136.3,492.2,132.9,505.3,121.7z"/>
<path class="st1" d="M530.9,207.7c-5.8,2.1-11.5,4.2-17,6.6c5.7,1,11.4,2.3,17,3.7V207.7z"/>
<path class="st1" d="M505.3,148.8v3.5c1.1-0.9,2.2-1.8,3.3-2.7L505.3,148.8z"/>
<path class="st1" d="M522.4,218c-5.6-1.4-11.3-2.7-17-3.7l0,0v6.1c5.7,1,11.4,1.8,17.1,2.4L522.4,218z"/>
<path class="st1" d="M522.4,138.9v-0.6c-5.7,0.9-11.4,1.7-17.1,2.4v8.1l3.3,0.8C513.1,145.9,517.7,142.3,522.4,138.9z"/>
<path class="st1" d="M465.7,143.2v1.3l4.1-0.2c1.1-0.2,2.3-0.4,3.4-0.6C470.6,143.5,468.2,143.4,465.7,143.2z"/>
<path class="st1" d="M505.3,257.8v11.4c5.7-0.3,11.4-0.4,17.1-0.6v-25.1C515.2,246,509.1,251.1,505.3,257.8z"/>
<path class="st1" d="M594.2,100.3c3.6-1.4,7.2-2.7,10.8-4C601.3,97.2,597.6,98.6,594.2,100.3z"/>
<path class="st1" d="M571.6,260.7c5.1-2.8,10-6,14.6-9.5c-4.8-1.5-9.7-2.9-14.6-4.3V260.7z"/>
<path class="st1" d="M668.4,233.5c-5,2.5-10.1,5-15.2,7.4v23.2c3.7,1.5,7.3,3.1,10.9,4.9c1.5-2.3,3-4.7,4.5-7.1V246
	C668.6,241.2,668.5,237.1,668.4,233.5z"/>
<path class="st1" d="M573.1,122c6.3-1.4,12.7-2.9,19-4.4c1.8-2.9,4.1-5.5,6.8-7.7c6.5-5.1,14.7-6.8,21.2-6.8
	c6.7,0,11.8,1.2,15.7,3.4c6.4-1.7,12.8-3.4,19.2-5.2c-5.7-6.9-17.1-13.3-34.3-13.3c-5.3,0-10.6,0.6-15.8,1.8
	c-3.6,1.3-7.3,2.6-10.8,4c-3.4,1.8-6.5,4-9.2,6.6C578.9,106,575.1,112.9,573.1,122z"/>
<path class="st1" d="M649.2,160.6l15.4-0.3c0-23.4,0-37.3-6.3-47.8c-4.7,3.1-9.4,6.3-14,9.6C649.2,131.4,649.2,145.3,649.2,160.6z"
	/>
<path class="st1" d="M644.3,122c4.6-3.3,9.3-6.5,14-9.6c-0.8-1.3-1.6-2.6-2.6-3.8c-0.2-0.2-0.4-0.5-0.6-0.7
	c-6.4,1.7-12.8,3.5-19.2,5.2C639.5,115.2,642.5,118.3,644.3,122z"/>
<path class="st1" d="M587,245.4c0-1.4,0-2.7,0.1-4c-5.1-2.3-10.3-4.6-15.5-6.7v12.3c4.9,1.3,9.8,2.8,14.6,4.3l0.8-0.6V245.4z"/>
<path class="st1" d="M657.6,276.3c0.7-1,1.4-2.1,2.1-3.1c-3.6-1.7-7.2-3.4-10.9-4.9v3.5L657.6,276.3z"/>
<path class="st1" d="M648.8,285.7c2.3-1.5,4.3-3.4,6-5.5c1-1.3,1.9-2.6,2.8-3.9l-8.8-4.5L648.8,285.7z"/>
<path class="st1" d="M664.2,275.4V266c-1.4,2.4-2.9,4.8-4.5,7.1C661.2,273.9,662.7,274.6,664.2,275.4z"/>
<path class="st1" d="M587,251.5l-0.8-0.2c-10.2,11.6-13.6,12.6-14.6,9.5v7.1c5.1-0.1,10.3-0.2,15.4-0.4V251.5z"/>
<path class="st1" d="M648.8,240.6v4.4c5.1-2.4,10.1-4.9,15.2-7.4c-0.6-15-2.3-21.4-4.4-25.6c-5.5,1.4-11,2.6-16.5,3.8
	C648.8,224.2,648.8,235.6,648.8,240.6z"/>
<path class="st1" d="M571.6,181v0.5l0.3-0.2L571.6,181z"/>
<path class="st1" d="M587,278.4v-7.7c-5.1,1.8-10.2,3.6-15.4,5.4v4.4c0.2-0.1,0.4-0.2,0.6-0.3C576.9,278.4,582,277.7,587,278.4z"/>
<path class="st1" d="M581.6,191.6c-3-3.7-6.2-7.1-9.7-10.3l-0.3,0.2v12.1C574.9,192.9,578.3,192.2,581.6,191.6z"/>
<path class="st1" d="M624.8,197.6c10.5,0,16.8,4.2,20.6,9.8c5.5-1.2,11-2.4,16.5-3.8c-0.7-1.3-1.4-2.6-2.2-3.9
	c-6.2-9.6-17.8-17.1-33.8-17.1c-5.2,0-10.4,0.7-15.4,2.3c2.1,4.6,4.3,9.1,6.5,13.6C619.6,197.9,622.2,197.6,624.8,197.6z"/>
<path class="st1" d="M607.7,209.1c2.3-1,4.6-1.7,7-2.2c-2.2-4.5-4.4-9-6.5-13.6c-2.1,0.7-4.2,1.5-6.3,2.5
	C603.8,200.3,605.7,204.7,607.7,209.1z"/>
<path class="st1" d="M587,267.4c-5.1,0.2-10.3,0.3-15.4,0.4v8.2c5.1-1.7,10.3-3.5,15.4-5.4V267.4z"/>
<path class="st1" d="M635.1,333.8c2-6.7,3.2-13.6,3.7-20.5c-1.7,3.8-4.3,7-7.6,9.5c-6.5,5.1-14.3,6.5-20.5,6.5
	c-30.4,0-30.4-28.7-30.4-42.7v-2.5c-5-0.6-10.1,0-14.8,1.9c-0.2,0.1-0.4,0.2-0.6,0.3v2.1c0,22.5,2.7,36.2,14.7,46.1
	c10.2,8.5,22.9,10.2,31.4,10.2c6.3,0,12.5-1.1,18.5-3C632.3,339.8,634.3,337,635.1,333.8z"/>
<path class="st1" d="M654.8,283.6c-1.6,1.9-3.4,3.6-5.5,5.1c-0.3,0.2-0.5,0.5-0.5,0.9v4.2c0.1,5.8-1,11.6-3.3,16.9
	c0,0.1-0.1,0.2-0.1,0.3c-0.5,6.9-1.7,13.7-3.7,20.3c-0.4,1.5-1,2.9-1.9,4.2c-0.4,0.5-0.2,1.2,0.3,1.5c0.3,0.2,0.7,0.3,1.1,0.1
	c12-5.6,23-16.9,23-39.4v-11.5l-9.3-3l-0.1,0.1L654.8,283.6z"/>
<path class="st1" d="M586.2,251.2l0.8,0.2v-0.8L586.2,251.2z"/>
<path class="st1" d="M587.3,167.5c-5.2,4.5-10.3,9.1-15.5,13.8c3.5,3.2,6.7,6.6,9.7,10.3c1.9-0.4,3.8-0.7,5.7-1.1L587.3,167.5z"/>
<path class="st1" d="M595.9,216.9c2.6-2.6,5.6-4.8,8.9-6.4c1-0.5,1.9-1,2.9-1.4c-2-4.4-3.9-8.9-5.8-13.3c-4.3,2.1-8.4,4.7-12.1,7.8
	C592.2,207.9,594.2,212.3,595.9,216.9z"/>
<path class="st1" d="M657.6,276.3l6.6,3.3v-4.2c-1.5-0.8-3-1.5-4.5-2.2C659,274.2,658.3,275.2,657.6,276.3z"/>
<path class="st1" d="M591.2,223.6c-6.5,0.6-13.1,0.9-19.6,1.1v9.9c5.2,2.2,10.3,4.4,15.5,6.7C587.5,233.7,589,228,591.2,223.6z"/>
<path class="st1" d="M582.1,168.8v-19.9c0-6.6,0-15.5,4.8-23.4c-6.3,1.5-12.7,3-19,4.4c-1.1,5.4-1.6,10.8-1.5,16.3v36.2l0.3,0.2
	C571.7,177.9,576.9,173.3,582.1,168.8z"/>
<path class="st1" d="M587.3,190.5c-1.9,0.4-3.8,0.7-5.7,1.1c2.1,2.5,4,5.1,5.7,7.9V190.5z"/>
<path class="st1" d="M591,223.1c-1.6-4.6-3.6-9.1-6-13.3c-0.9,0.7-1.7,1.4-2.5,2.1v-6.3c-1.8-2.7-3.7-5.4-5.7-7.9
	c-3.3,0.7-6.7,1.4-10,2.1v31.1c6.5-0.2,13.1-0.6,19.6-1.1C587.6,227.3,589.1,225.1,591,223.1z"/>
</svg>
